<svg width="540" height="505" viewBox="0 0 540 505" fill="none" xmlns="http://www.w3.org/2000/svg">
<circle cx="287.665" cy="252.335" r="251.835" stroke="#5F9464"/>
<rect x="171.147" y="116.757" width="83.8249" height="128.967" transform="rotate(30 171.147 116.757)" fill="#5F9464" stroke="#5F9464"/>
<path d="M282.117 234.671C282.117 260.874 260.875 282.115 234.673 282.115C208.471 282.115 187.229 260.874 187.229 234.671C187.229 208.469 208.471 187.228 234.673 187.228C260.875 187.228 282.117 208.469 282.117 234.671Z" stroke="#5F9464"/>
<rect x="12.7999" y="46.1012" width="180.681" height="24.2335" transform="rotate(29.9998 12.7999 46.1012)" fill="#5F9464" stroke="#5F9464"/>
<rect x="23.8842" y="87.4649" width="150.401" height="24.2335" transform="rotate(29.9998 23.8842 87.4649)" fill="#5F9464" stroke="#5F9464"/>
<rect x="48.0782" y="136.4" width="104.981" height="24.2335" transform="rotate(29.9998 48.0782 136.4)" fill="#5F9464" stroke="#5F9464"/>
<rect x="297.615" y="177.317" width="204.561" height="149.755" transform="rotate(30 297.615 177.317)" fill="#5F9464" stroke="#5F9464"/>
</svg>
