<svg width="40" height="40" viewBox="0 0 40 40" fill="none" xmlns="http://www.w3.org/2000/svg">
<circle cx="20" cy="20" r="19.5" fill="#00762C" stroke="#00762C"/>
<path d="M19.6264 31.2093C13.194 21.8842 12 20.9271 12 17.5C12 12.8056 15.8056 9 20.5 9C25.1944 9 29 12.8056 29 17.5C29 20.9271 27.806 21.8842 21.3736 31.2093C20.9514 31.8191 20.0485 31.8191 19.6264 31.2093ZM20.5 21.0417C22.456 21.0417 24.0417 19.456 24.0417 17.5C24.0417 15.544 22.456 13.9583 20.5 13.9583C18.544 13.9583 16.9583 15.544 16.9583 17.5C16.9583 19.456 18.544 21.0417 20.5 21.0417Z" fill="white"/>
</svg>
